# xmcd CD database file
#
# Track frame offsets:
#	150
#	17645
#	34125
#
# Disc length: 685 seconds
#
# Revision: 2
# Processed by: cddbd v1.5.1PL0 Copyright (c) Steve Scherf et al.
# Submitted via: CDex 1.60beta1
#
DISCID=1a02ab03
DTITLE=Berryz工房 - ハピネス 〜幸福歓迎！〜
DYEAR=2004
DGENRE=JPop
TTITLE0=ハピネス 〜幸福歓迎！〜
TTITLE1=友情 純情 oh 青春
TTITLE2=ハピネス 〜幸福歓迎！〜 (Instrumental)
EXTD=YEAR: 2004
EXTT0=
EXTT1=
EXTT2=
PLAYORDER=
